<?xml version="1.0" standalone="no"?>
<!DOCTYPE svg PUBLIC "-//W3C//DTD SVG 20010904//EN"
 "http://www.w3.org/TR/2001/REC-SVG-20010904/DTD/svg10.dtd">
<svg version="1.0" xmlns="http://www.w3.org/2000/svg"
 width="100.000000pt" height="100.000000pt" viewBox="0 0 100.000000 100.000000"
 preserveAspectRatio="xMidYMid meet">

<g transform="translate(0.000000,100.000000) scale(0.100000,-0.100000)"
fill="#000000" stroke="none">
<path d="M431 967 c-53 -27 -65 -59 -71 -185 -6 -123 -9 -133 -60 -197 -49
-61 -100 -173 -100 -220 0 -43 -14 -62 -71 -97 -23 -15 -27 -25 -33 -88 -8
-85 -2 -96 57 -105 23 -3 70 -15 105 -27 65 -21 100 -19 126 7 20 21 95 34
154 27 34 -4 54 -13 73 -34 43 -45 88 -37 162 29 21 18 53 41 72 50 46 22 49
36 20 91 -14 26 -25 52 -25 58 0 6 -6 17 -14 23 -9 7 -12 26 -9 59 6 61 -23
140 -77 207 -70 88 -83 121 -90 225 -8 108 -26 152 -70 175 -35 18 -116 19
-149 2z m135 -142 c10 -16 14 -34 10 -50 -9 -34 -32 -32 -31 3 0 33 -24 37
-36 5 -6 -17 -3 -23 21 -33 46 -19 56 -37 34 -61 -14 -15 -14 -18 -2 -14 11 4
20 -7 33 -42 10 -26 36 -84 57 -127 21 -44 38 -88 38 -98 0 -36 29 -19 33 20
l4 37 1 -41 c2 -32 8 -45 32 -62 17 -13 30 -27 30 -32 0 -5 -11 2 -25 15 -33
34 -79 33 -110 -2 -24 -28 -28 -42 -40 -136 -6 -45 -9 -50 -48 -68 -48 -21
-99 -24 -146 -8 -34 12 -63 50 -42 57 28 9 9 50 -54 108 -62 58 -65 63 -64
105 l1 44 8 -38 c9 -50 17 -55 25 -15 4 18 25 74 46 124 22 50 42 105 45 122
l6 31 37 -21 c36 -20 38 -21 74 -3 21 10 35 20 33 23 -3 3 -11 0 -18 -5 -32
-26 -59 -25 -99 2 -21 15 -39 33 -39 40 0 20 59 65 85 65 18 0 23 4 19 15 -9
21 23 65 46 65 11 0 27 -11 36 -25z m-126 -11 c12 -30 2 -55 -12 -30 -14 24
-28 19 -28 -10 0 -14 -4 -23 -10 -19 -14 9 -13 58 2 73 19 19 38 14 48 -14z
m-154 -537 c10 -18 37 -61 60 -96 24 -35 44 -74 44 -86 0 -51 -56 -60 -157
-26 -34 12 -74 21 -87 21 -34 0 -42 19 -36 91 4 48 9 64 25 73 11 6 37 26 58
44 44 38 66 33 93 -21z m384 28 c0 -8 10 -19 21 -26 17 -9 30 -7 61 7 47 21
68 13 80 -33 4 -17 15 -36 23 -43 26 -22 18 -55 -18 -72 -19 -9 -54 -34 -79
-56 -26 -22 -58 -42 -72 -46 -55 -14 -93 35 -75 96 6 18 14 64 19 101 5 38 12
72 15 78 9 14 25 11 25 -6z"/>
</g>
</svg>
