<svg width="68" height="104" viewBox="0 0 68 104" fill="none" xmlns="http://www.w3.org/2000/svg">
<path d="M51.0025 34.6734C55.5105 34.6734 59.8339 32.8469 63.0215 29.5956C66.2092 26.3444 68 21.9347 68 17.3367C68 12.7387 66.2092 8.32907 63.0215 5.07781C59.8339 1.82654 55.5105 0 51.0025 0L17.0075 0C12.5021 0 8.18124 1.82547 4.99546 5.07483C1.80967 8.32419 0.0199197 12.7313 0.0199197 17.3266C0.0199197 21.9219 1.80967 26.3289 4.99546 29.5783C8.18124 32.8277 12.5021 34.6531 17.0075 34.6531C12.4995 34.6531 8.17607 36.4797 4.98842 39.7309C1.80077 42.9822 0.00996231 47.3919 0.00996231 51.9898C0.00996231 56.5878 1.80077 60.9975 4.98842 64.2488C8.17607 67.5 12.4995 69.3266 17.0075 69.3266C13.6457 69.3246 10.3588 70.3394 7.56249 72.2427C4.76617 74.146 2.586 76.8523 1.29768 80.0194C0.00935864 83.1865 -0.329251 86.6721 0.32467 90.0355C0.978591 93.3989 2.59567 96.489 4.97142 98.915C7.34717 101.341 10.3749 102.994 13.6717 103.665C16.9685 104.336 20.3863 103.995 23.493 102.684C26.5996 101.374 29.2555 99.1534 31.1249 96.3035C32.9942 93.4536 33.9931 90.1023 33.995 86.6734V34.6734H51.0025ZM51.0025 34.6734C47.6427 34.6734 44.3583 35.6896 41.5647 37.5935C38.7711 39.4974 36.5938 42.2034 35.308 45.3694C34.0223 48.5354 33.6859 52.0192 34.3413 55.3802C34.9968 58.7413 36.6147 61.8286 38.9905 64.2517C41.3662 66.6749 44.3931 68.3251 47.6884 68.9936C50.9836 69.6622 54.3993 69.3191 57.5033 68.0077C60.6074 66.6962 63.2605 64.4755 65.1271 61.6261C66.9937 58.7768 67.99 55.4269 67.99 52C67.9895 47.4049 66.1996 42.9981 63.0139 39.7489C59.8283 36.4996 55.5077 34.674 51.0025 34.6734Z" fill="white"/>
</svg>
